<svg xmlns="http://www.w3.org/2000/svg" viewBox="0 0 420 520" fill="none">
  <path d="M94 493 L94 477 C110 459 119 438 125 408 C131 375 119 356 127 338 C116 337 114 330 121 326 C112 321 112 310 119 306 C105 296 103 282 110 274 C96 260 89 246 86 232 C76 224 76 213 86 202 C79 188 87 176 97 163 C110 146 111 135 111 123 C111 111 112 103 108 96 C121 102 129 99 129 89 C140 99 145 87 149 72 C154 57 159 50 164 45 C160 72 156 94 164 100 C172 106 184 103 188 96 C184 110 194 116 198 105 C200 93 194 77 190 64 C185 50 184 39 191 33 C198 28 205 30 209 38 C217 52 231 54 241 50 C227 45 212 37 207 26 C201 13 207 8 219 8 C229 8 231 0 239 0 C258 13 274 16 297 17 C310 18 321 26 327 39 C330 45 330 51 334 56 C341 59 350 57 359 60 L397 82 L412 115 L398 137 L408 145 C420 166 416 189 420 210 C412 222 413 231 418 240 C418 253 411 259 402 257 C391 264 389 281 390 297 C374 308 358 315 350 334 C341 353 347 377 354 390 C368 378 384 349 398 316 C414 306 429 298 445 296 C461 302 474 314 482 329 C487 361 494 381 506 400 L506 431 L517 449 L517 494 C506 487 491 487 483 496 C478 509 475 520 475 520 L94 520 Z" transform="scale(.74 1) translate(20 0)" stroke="#7dd3fc" stroke-width="5" stroke-linecap="round" stroke-linejoin="round"/>
</svg>
